<svg xmlns="http://www.w3.org/2000/svg" width="1007.844" height="1007.844" viewBox="0 0 1007.844 1007.844">
  <g id="BG" transform="translate(347 -852.219)">
    <g id="icon" transform="translate(-686.036 -274.652)" opacity="0.1">
      <path id="Path_6" data-name="Path 6" d="M842.954,1284.949c190.7,0,345.849,155.144,345.849,345.84s-155.153,345.849-345.849,345.849-345.841-155.145-345.841-345.849,155.145-345.84,345.841-345.84m0-158.077c-278.3,0-503.917,225.616-503.917,503.917s225.615,503.927,503.917,503.927S1346.88,1909.1,1346.88,1630.789s-225.616-503.917-503.926-503.917Z" transform="translate(0 -0.001)" fill="#00d3b7"/>
      <path id="Path_7" data-name="Path 7" d="M447.667,1505.127a51.375,51.375,0,0,1,0-102.75c92.017,0,166.874-74.857,166.874-166.874a51.375,51.375,0,1,1,102.75,0C717.292,1384.183,596.339,1505.127,447.667,1505.127Z" transform="translate(395.286 395.286)" fill="#db1e5e"/>
    </g>
    <path id="Path_86" data-name="Path 86" d="M532.529,131.027c-21.932-13.41-27.7-37.265-6.831-61.489S574.71,47.229,593.01,59.074c18.647,12.071,41.207,53.807,27.87,75.712S556.544,145.712,532.529,131.027Z" transform="translate(-439.721 918.413)" fill="#ffb100" opacity="0.8"/>
    <path id="Path_87" data-name="Path 87" d="M540.428,115.175c-13.063.658-22.268-9.13-20.339-27.875s14.351-27.083,25.437-27.31c11.3-.232,34.072,11.628,34.662,26.755S554.732,114.455,540.428,115.175Z" transform="translate(-305.104 1088.523) rotate(-29)" fill="#00d3b7" opacity="0.8"/>
  </g>
</svg>
