<svg xmlns="http://www.w3.org/2000/svg" xmlns:xlink="http://www.w3.org/1999/xlink" width="1366" height="81" viewBox="0 0 1366 81">
  <defs>
    <clipPath id="clip-path">
      <rect id="bandeau_blanc" data-name="bandeau blanc" width="1366" height="81" transform="translate(151 11.648)" fill="#db1e5e"/>
    </clipPath>
  </defs>
  <g id="Elements_gravitionnels" data-name="Elements gravitionnels" transform="translate(-151 -11.648)" clip-path="url(#clip-path)">
    <g id="BG_dots" data-name="BG dots" transform="translate(492.888 104) rotate(180)">
      <path id="Path_50" data-name="Path 50" d="M36.209,21.89A18.1,18.1,0,1,1,0,21.89C0,11.839,36.209,11.839,36.209,21.89Z" transform="translate(391.65 56.481)" fill="#ff851a"/>
      <path id="Path_52" data-name="Path 52" d="M36.209,21.89A18.1,18.1,0,1,1,0,21.89C0,11.839,36.209,11.839,36.209,21.89Z" transform="translate(46.555 56.592)" fill="#a44786"/>
      <ellipse id="Ellipse_14" data-name="Ellipse 14" cx="11.084" cy="11.514" rx="11.084" ry="11.514" transform="translate(334.778 4.855)" fill="#ffb100"/>
      <ellipse id="Ellipse_18" data-name="Ellipse 18" cx="11.084" cy="11.514" rx="11.084" ry="11.514" fill="#ff851a"/>
      <ellipse id="Ellipse_15" data-name="Ellipse 15" cx="11.454" cy="11.514" rx="11.454" ry="11.514" transform="translate(469.98 44.793)" fill="#a44786"/>
      <ellipse id="Ellipse_16" data-name="Ellipse 16" cx="11.454" cy="11.514" rx="11.454" ry="11.514" transform="translate(208.398 45.314)"/>
    </g>
    <g id="BG_dots-2" data-name="BG dots" transform="translate(1719.902 104) rotate(180)">
      <path id="Path_50-2" data-name="Path 50" d="M36.209,21.89A18.1,18.1,0,1,1,0,21.89C0,11.839,36.209,11.839,36.209,21.89Z" transform="translate(524.664 56.481)" fill="#ff851a"/>
      <path id="Path_52-2" data-name="Path 52" d="M36.209,21.89A18.1,18.1,0,1,1,0,21.89C0,11.839,36.209,11.839,36.209,21.89Z" transform="translate(187.568 23.592)" fill="#fff"/>
      <path id="Path_51" data-name="Path 51" d="M36.209,21.89A18.1,18.1,0,1,1,0,21.89C0,11.839,36.209,11.839,36.209,21.89Z" transform="translate(92.8 63.613)" fill="#00d3b7"/>
      <ellipse id="Ellipse_14-2" data-name="Ellipse 14" cx="11.084" cy="11.514" rx="11.084" ry="11.514" transform="translate(467.792 4.855)" fill="#ffb100"/>
      <ellipse id="Ellipse_18-2" data-name="Ellipse 18" cx="11.084" cy="11.514" rx="11.084" ry="11.514" transform="translate(133.013)" fill="#ff851a"/>
      <ellipse id="Ellipse_17" data-name="Ellipse 17" cx="11.084" cy="11.514" rx="11.084" ry="11.514" transform="translate(0 80.971)" fill="#a44786"/>
      <ellipse id="Ellipse_15-2" data-name="Ellipse 15" cx="11.454" cy="11.514" rx="11.454" ry="11.514" transform="translate(602.994 44.793)" fill="#a44786"/>
      <ellipse id="Ellipse_16-2" data-name="Ellipse 16" cx="11.454" cy="11.514" rx="11.454" ry="11.514" transform="translate(341.411 45.314)"/>
    </g>
  </g>
</svg>
