<?xml version="1.0" encoding="UTF-8"?>
<!DOCTYPE svg PUBLIC "-//W3C//DTD SVG 1.1//EN"
  "http://www.w3.org/Graphics/SVG/1.1/DTD/svg11.dtd">
<!-- Created with Inkpad (http://www.taptrix.com/) --><svg xmlns:inkpad="http://taptrix.com/inkpad/svg_extensions" height="692pt" xmlns:xlink="http://www.w3.org/1999/xlink" xmlns="http://www.w3.org/2000/svg" width="1388pt" version="1.1" viewBox="0,0,1388,692">
<defs/>
<g id="Untitled" inkpad:layerName="Untitled">
<path d="M-899.976-231.4M749.393+514.648C668.549+621.763+525.456+696.609+369.245+722.828C213.008+751.148+47.9974+726.905-89.4327+693.649C-225.572+654.781-304.426+629.951-334.643+537.013C-364.574+449.375-362.345+278.537-327.922+98.0046C-294.283-81.6879-196.654-177.906-37.5813-189.418C120.785-204.179+304.031-144.742+447.772-66.9094C591.185+14.9327+694.62+104.158+757.191+202.429C817.885+300.094+830.564+407.338+749.393+514.648Z" opacity="0.9" fill="#ffffff"/>
<path d="M1121.01+230.277C1121.01+216.746+1131.98+205.777+1145.51+205.777C1159.04+205.777+1170.01+216.746+1170.01+230.277C1170.01+243.808+1159.04+254.777+1145.51+254.777C1131.98+254.777+1121.01+243.808+1121.01+230.277Z" opacity="1" fill="#a44786"/>
<path d="M799.009+451.277C799.009+442.717+805.725+435.777+814.009+435.777C822.293+435.777+829.009+442.717+829.009+451.277C829.009+459.837+822.293+466.777+814.009+466.777C805.725+466.777+799.009+459.837+799.009+451.277Z" opacity="1" fill="#ff851a"/>
<path d="M1180.01+499.277C1180.01+490.717+1186.95+483.777+1195.51+483.777C1204.07+483.777+1211.01+490.717+1211.01+499.277C1211.01+507.837+1204.07+514.777+1195.51+514.777C1186.95+514.777+1180.01+507.837+1180.01+499.277Z" opacity="1" fill="#ac4071"/>
<path d="M1357.01+387.277C1357.01+378.717+1363.95+371.777+1372.51+371.777C1381.07+371.777+1388.01+378.717+1388.01+387.277C1388.01+395.837+1381.07+402.777+1372.51+402.777C1363.95+402.777+1357.01+395.837+1357.01+387.277Z" opacity="0" fill="#ac4071"/>
<path d="M-19.991+924.277C-19.991+915.717-13.0514+908.777-4.49103+908.777C4.06939+908.777+11.009+915.717+11.009+924.277C11.009+932.837+4.06939+939.777-4.49103+939.777C-13.0514+939.777-19.991+932.837-19.991+924.277Z" opacity="0" fill="#ac4071"/>
</g>
</svg>
